<svg width="122" height="70" viewBox="0 0 122 70" fill="none" xmlns="http://www.w3.org/2000/svg">
<path d="M41.3357 35.9326H40.1531V40H38.1023V30.0469H40.1531V34.0322H41.0896L43.5232 30.0469H46.0251L42.9558 34.7568L46.3464 40H43.8992L41.3357 35.9326ZM50.1978 37.2041L51.565 32.6035H53.6841L50.7105 41.1484L50.5464 41.5381C50.1044 42.5042 49.3752 42.9873 48.3589 42.9873C48.0718 42.9873 47.7802 42.944 47.4839 42.8574V41.3604L47.7847 41.3672C48.1584 41.3672 48.4364 41.3102 48.6187 41.1963C48.8055 41.0824 48.9514 40.8932 49.0562 40.6289L49.2886 40.0205L46.6978 32.6035H48.8238L50.1978 37.2041ZM61.596 40H59.6136V34.2031H57.139V40H55.1634V32.6035H61.596V40ZM68.2638 32.6035H70.2394V40H68.2638V35.4336L65.7892 40H63.8068V32.6035H65.7892V37.1631L68.2638 32.6035ZM78.5888 34.1895H76.2167V40H74.2343V34.1895H71.9033V32.6035H78.5888V34.1895ZM82.3992 34.7705H83.8142C84.4522 34.7705 85.0128 34.8776 85.4958 35.0918C85.9789 35.306 86.3481 35.6136 86.6033 36.0146C86.863 36.4111 86.9929 36.8737 86.9929 37.4023C86.9929 38.1816 86.7035 38.8105 86.1248 39.2891C85.5505 39.763 84.7667 40 83.7732 40H80.4167V32.6035H82.3992V34.7705ZM82.3992 36.3564V38.4209H83.8005C84.1925 38.4209 84.4932 38.3298 84.7029 38.1475C84.9125 37.9652 85.0173 37.7168 85.0173 37.4023C85.0173 37.0833 84.9148 36.8304 84.7097 36.6436C84.5046 36.4521 84.2016 36.3564 83.8005 36.3564H82.3992Z" fill="#C3B182"/>
<path d="M10 10V9C9.44772 9 9 9.44772 9 10H10ZM112 10H113C113 9.44772 112.552 9 112 9V10ZM112 60V61C112.552 61 113 60.5523 113 60H112ZM10 60H9C9 60.5523 9.44772 61 10 61V60ZM10 11H112V9H10V11ZM111 10V60H113V10H111ZM112 59H10V61H112V59ZM11 60V10H9V60H11Z" fill="#C3B182"/>
</svg>
